<svg xmlns="http://www.w3.org/2000/svg" viewBox="0 0 69.42 121.21"><defs><style>.cls-1{fill:#5a5c5c;}.cls-1,.cls-2{stroke:#231815;}.cls-1,.cls-2,.cls-3,.cls-4{stroke-miterlimit:10;}.cls-2,.cls-4{fill:none;}.cls-3{fill:#5b5c5c;}.cls-3,.cls-4{stroke:#040000;}</style></defs><g id="圖層_2" data-name="圖層 2"><path class="cls-1" d="M134.32,545.63l.46,1.48h0a3.7,3.7,0,0,1,1.44,2.93h0a6.36,6.36,0,0,0,.43,2.28l.57,1.46.75-1.25a.32.32,0,0,1,.52,0,2.85,2.85,0,0,0,.62.51c.56.39-.72,1.51-.72,1.51l.37,0a2.89,2.89,0,0,1,2.27,1.76h0a1.46,1.46,0,0,0,1.23.91l1.78.17a5.62,5.62,0,0,0,1.69-.11l1.74-.39a3.7,3.7,0,0,0,2.33-1.62l.79-1.22a4,4,0,0,0,.52-1.24h0a.92.92,0,0,0-.89-1.12h0a3,3,0,0,1-2.6-1.53h0a2,2,0,0,0-1.75-1h0a1.83,1.83,0,0,1-1.82-1.72l0-1a.6.6,0,0,0-1-.42l-.75.64a1.94,1.94,0,0,1-1.74.42l-1.54-.38a5.56,5.56,0,0,1-1.15-.44l-2.58-1.36A.61.61,0,0,0,134.32,545.63Z" transform="translate(-130.08 -544.18)"/><path class="cls-2" d="M156.09,550.85v-2.63l6.42,1.78,2.46.74c.77.23,1-.78,2.07-.71h0l.86,1.35a2.48,2.48,0,0,0,2.08,1.14h1.61a1.76,1.76,0,0,1,1.63,1.08l.3.7h0a1.8,1.8,0,0,1,.9,2.37l-1.65,3.68-.68,4.12a5.7,5.7,0,0,0,.13,2.43l.53,2a.9.9,0,0,1-1,1.14c-1-.11-1.91-.31-.83-.58s.86-1.23.47-1.87a1.11,1.11,0,0,0-1.17-.51l-1.41.27a2.07,2.07,0,0,1-1.68-.42h0a1,1,0,0,0-1.5.24h0a2.11,2.11,0,0,1-2.47.89l-.14,0a3.51,3.51,0,0,1-1-.53l-1.3-1-1.14-.36,1.33-2.46,1.47-2.66v-3.55l-.48-2.57-2-1-2-1.85-1.79-1.11" transform="translate(-130.08 -544.18)"/><path class="cls-2" d="M149.61,571.55h0l.29.91a3.91,3.91,0,0,1,0,2.32h0l.76.35a.76.76,0,0,1,.43.67v.86a2.16,2.16,0,0,1-1.13,1.9h0a11.33,11.33,0,0,0-.39,1.38,14.51,14.51,0,0,0,.78,1.89,4.53,4.53,0,0,0,.36.64h0a1.84,1.84,0,0,1,0,2.06l-.2.3H153a1.85,1.85,0,0,1,1.37.62l1,1.16v-1.38l1.16,0,1.35-1.06,1.15-.12,2-1.45,2,.67,2.2,1.54.23-2.88V579.8l-.41-1.89,2.3-2.58,3.68-1.65,1.92-.48.45-1.33-.69-1.59-1.78-.42.75-1.72L170.24,567l-2.61.13-1.76-.27h0a3.81,3.81,0,0,1-3.62.43l-.74-.3-1.9-.94-.7,2.33a4.78,4.78,0,0,1-1.48,2.29h0a2.26,2.26,0,0,1-2.2.45l-3.22-1-.3,0A2.7,2.7,0,0,0,149.61,571.55Z" transform="translate(-130.08 -544.18)"/><path class="cls-2" d="M134.29,544.84s-4,1.73-3.7,1.88,1.06,4.14,1.32,5.5a4.41,4.41,0,0,0,.28.87l2,4.44a4.76,4.76,0,0,1,.24,3.24l-.13.45.19,1a1.26,1.26,0,0,0,2.09.71l.49-.44a.91.91,0,0,1,.89-.2l1,.3a1.47,1.47,0,0,0,1.9-1.41h0l.57-.51-.25-2.78-.09-1.56-1.1-.84a2.36,2.36,0,0,1-.84-2.37l0-.1-1.14-.47-.57,1-1.15-2.82-.51-2.44Z" transform="translate(-130.08 -544.18)"/><path class="cls-2" d="M135.06,563.06l.29,1.5,1,1.18.8,2.69.71,1.66a.79.79,0,0,1-.42,1l-2.37,1a.89.89,0,0,0-.48,1.14l.3.76a1.57,1.57,0,0,0,1.71,1l1.95-.33a1.45,1.45,0,0,1,1.33.48h0a1.85,1.85,0,0,0,1.26.63l2.66.19a2.43,2.43,0,0,1,1.21.43l.88.62a1.84,1.84,0,0,0,2.05,0h0l1.26.7a1,1,0,0,0,1.47-.58l.18-.54a1.31,1.31,0,0,0-.39-1.38l-.54-.46,0-2.32-.29-.91.34-.37a1.28,1.28,0,0,0,.22-1.43l-.24-.52a1.18,1.18,0,0,0-1.08-.69h-.06a2.7,2.7,0,0,1-2.23-1.17l-.84-1.22a1.71,1.71,0,0,0-1-.69l-1.68-.41-2.42-2.18-2.66-.6Z" transform="translate(-130.08 -544.18)"/><path class="cls-2" d="M140.56,576.74l4.07,9.87,5.19,10.32a.84.84,0,0,0,1.49,0l1.35-2.63,2.24-5.4a2.4,2.4,0,0,0-.15-2.12l-.73-1.25a1.2,1.2,0,0,0-1-.59l-1.41-.06a1,1,0,0,1-1-1.12l.07-.86a3.11,3.11,0,0,0,0-.86l-.53-2.74a2,2,0,0,0-.74-1.2l-.85-.63a4,4,0,0,0-1.29-.62l-3.44-.9-2.21-.46A.92.92,0,0,0,140.56,576.74Z" transform="translate(-130.08 -544.18)"/><path class="cls-2" d="M152.05,602.24l-.57,1.82a2.76,2.76,0,0,0-.06,1.34l.24,1.21.22,2.21a3.16,3.16,0,0,1-1.15,2.75l-.38.3a2.87,2.87,0,0,0-1,1.9l-.27,2.37a3.49,3.49,0,0,0,.3,1.86l1.15,2.56.74,1.15a2.35,2.35,0,0,1,.06,2.5h0a.85.85,0,0,0,.48,1.25l3.57,1.16,2.26-.34,1.56.86a1.89,1.89,0,0,0,1.87,0l2.92-1.67a1.78,1.78,0,0,1,1.65-.06l.63.3a1.86,1.86,0,0,0,2.14-.37l.34-.34.88.19a.88.88,0,0,0,.8-.24l.24-.24a1.09,1.09,0,0,0,.3-.75v-.78l.95-.28-.95-.83.76-1.78-4.78-.67s-1.15.82-1.33.89-3.65-.52-3.65-.52l-3.32.63a1,1,0,0,1-1.18-.7l-.29-.86a2.13,2.13,0,0,1,.18-1.71h0a2.59,2.59,0,0,1,1.64-1.19l3.08-.67,1.8-1.08,1.07-2.73,1.43-2a3,3,0,0,0,.52-1.36l0-.21a2.41,2.41,0,0,0-.41-1.65l-1.31-1.86-.11-.15a1.79,1.79,0,0,0-2-.6l-.34.12-2.14-2,.34-.92-.4-.61-1.38,1.08-3.07.11-2.74-.16-1.3.79" transform="translate(-130.08 -544.18)"/><path class="cls-2" d="M166,605.79l.88,1.4.62,1.37a2.92,2.92,0,0,0,1.74,1.58l.87.29a2.7,2.7,0,0,0,.85.13h2.54a1.5,1.5,0,0,1,.52.1l.58.21a2.21,2.21,0,0,0,2.39-.58l3.45-3.79,3-2.43,0,0a1.66,1.66,0,0,0,.58-2.22h0a20.71,20.71,0,0,0,1.44-2.55,12.1,12.1,0,0,1,.45-1.52,3.36,3.36,0,0,0,0-2l-.18-.62a2.13,2.13,0,0,1,.77-2.29l.61-.46a2.78,2.78,0,0,0,1.08-1.74l.36-2a2.36,2.36,0,0,0-.87-2.29l-.09-.07a1.29,1.29,0,0,0-1.49-.07h0a2.75,2.75,0,0,1-2.25.34h0a1.64,1.64,0,0,0-1.42.29l-2.19,1.75a3,3,0,0,1-1.75.65l-3.23.1a2.64,2.64,0,0,1-.49,0l-1.52-.22a2.52,2.52,0,0,0-2.24.82h0a1.56,1.56,0,0,0-.38,1.24l.32,2.8-.77,2.28-1.43,1.11a2.41,2.41,0,0,0-.91,2.07l.1,1.4-2,2.52h0A2.32,2.32,0,0,0,166,605.79Z" transform="translate(-130.08 -544.18)"/><path class="cls-2" d="M192.27,582.65l.89.64a3.15,3.15,0,0,0,1.78.56h2.13a1.92,1.92,0,0,1,1.93,1.93v11.85l-.58,5.42a4.86,4.86,0,0,1-1.18,2.71l-1.31,1.5a4,4,0,0,0-.91,1.87l-.57,3a5.93,5.93,0,0,0-.12,1.19v.91a2.65,2.65,0,0,1-2,2.57l-1.94.51-.74.39a3.76,3.76,0,0,1-2.28.42h0a1.7,1.7,0,0,1-1.47-1.87l.36-3.18a4.06,4.06,0,0,0-.39-2.22l-1.48-3h0a3.78,3.78,0,0,1-.69-3.47l.29-1,1.88-5.66,0-2.66a4.23,4.23,0,0,1,1.12-2.79l.94-1,.43-2.87a3,3,0,0,1,1.23-2h0a1.6,1.6,0,0,0,.64-1l.1-.51a3,3,0,0,1,1.8-2.2l.09,0" transform="translate(-130.08 -544.18)"/><path class="cls-2" d="M181.11,619a1,1,0,0,0-.31,1.51,11.19,11.19,0,0,1,1.61,2.56c-.22.15-2.3.74-2.3.74v3l-1.85,2.89v1.42a3.78,3.78,0,0,0,1.55,3l.91.65a3.41,3.41,0,0,1,1.11,1.33l1.24,2.6,1.33,2.44a3.67,3.67,0,0,1,0,3.55h0a1.28,1.28,0,0,0,.83,1.87l1.63.36,2.13.15a4.69,4.69,0,0,0,4.65-2.88h0l1.81-3.27,1.34-5v-4.16a6,6,0,0,0-1.44-3.9h0a4.77,4.77,0,0,1-1.14-3.13l.06-6,.07-1.32a1.44,1.44,0,0,0-2.12-1.2l-1.37.88a3,3,0,0,1-.92.3l-3.3.42-3.12.27a4.14,4.14,0,0,0-1.75.56Z" transform="translate(-130.08 -544.18)"/><path class="cls-2" d="M164.26,646.38l1.33,1.79,2.52,1.5,1.17-.84.83.84-.19.37a1.42,1.42,0,0,0,.47,1.83l3.55,2.35,4.32,3.89,5.38,3.75a7.46,7.46,0,0,0,2,1l5.88,1.88.37-3.87a7.68,7.68,0,0,0,0-1.59l-.47-4.59-.22-4.61.78-3a.59.59,0,0,0-.71-.73l-3.3.79L184.42,646l.2-1.78-.22-3.05-1.74-3.31-1.94-3.06-2.06-2-3.66.69-2.57.31a2.35,2.35,0,0,0-2,1.68l0,.13a3.13,3.13,0,0,1-1.28,1.73l-3,1.93s-1,1-1.11.89.5.88.5.88l-1.12,1.72-.11.12A2.87,2.87,0,0,0,164.26,646.38Z" transform="translate(-130.08 -544.18)"/></g><g id="圖層_1" data-name="圖層 1"><path class="cls-3" d="M173.1,570.11l1.46-1.28a1.15,1.15,0,0,1,1.64.12h0a.82.82,0,0,0,.94.24h0a1.08,1.08,0,0,1,1,.11l.78.55.9-.06a1.32,1.32,0,0,1,1.24.69h0a1.24,1.24,0,0,0,1.53.56h0a.6.6,0,0,1,.55.07l1.25.83a2.61,2.61,0,0,0,1.7.42l.95-.09a1.79,1.79,0,0,1,1.55.66l.27.34h0a1,1,0,0,1,1,1h0a2,2,0,0,0,.49,1.33l.59.68a1.57,1.57,0,0,1,.28,1.57h0l.84.53a3.44,3.44,0,0,1,1.52,2h0a.74.74,0,0,1-.09.58l-.54.87,0,.09a2.51,2.51,0,0,1-1.65,1.07h0a1.4,1.4,0,0,0-1.07.9l-.06.16a2.08,2.08,0,0,0-.11,1.13l.12.78-.43,1h0a1.11,1.11,0,0,1-1.52-.11l-.9-1a.8.8,0,0,0-1.1,0l-.59.65a.89.89,0,0,1-1.22.09h0a1.69,1.69,0,0,0-1.35-.36l-.32.14a1.71,1.71,0,0,0-.82.4l-2.46,2.32-3.68.27-2.93-.44-.22-.1a1,1,0,0,0-1.26.47l-.1.23a.7.7,0,0,1-1.07.25l-.73-.59c-.57-.5-.53-1.19.06-1.4h0a1.23,1.23,0,0,0,.43-1.55l-1-2.26a.63.63,0,0,0-1-.21h0a4.17,4.17,0,0,1-2.68,1h0a3.72,3.72,0,0,1,0-2l.44-1.68,0-.73a1.54,1.54,0,0,0-.68-1.22h0a2.71,2.71,0,0,1,.89-2.53l.52-.46,1-.92,1.12-.4,2.56-1.25.06,0c2.25.1,2.91-1.26,1.81-3h0A.59.59,0,0,1,173.1,570.11Z" transform="translate(-130.08 -544.18)"/><path class="cls-4" d="M155.86,585.15l0,0A.94.94,0,0,0,157,585l.57-.58a1.17,1.17,0,0,1,.84-.36h.65l1.24-.81.74-.64a.71.71,0,0,1,.95,0l.51.49a.62.62,0,0,0,.52.16l.45-.06a.65.65,0,0,1,.6.23l.88,1a.63.63,0,0,0,.67.19l2.26-.75a1.42,1.42,0,0,1,1.06.24l1.11,2.61a2.46,2.46,0,0,1-.91,1.35l-1.19.18c-.3,0-.56.3-.59.67l-.24,2.59a10,10,0,0,1-.54,2.29c-.19,0-2-.52-2-.52s-1.25.13-1.17.21a.69.69,0,0,1,0,.3,1.49,1.49,0,0,1-1.48,1.39h-1.66l-1.24-1.53a1.28,1.28,0,0,0-1-.49l-1.71,0a1.67,1.67,0,0,0-1.39.7l-.19.27a1.1,1.1,0,0,1-1,.46l-.78-.07a.47.47,0,0,1-.4-.27h0a1.66,1.66,0,0,1,.2-1.76l.49-.62a1.92,1.92,0,0,0,.23-.35l1.29-2.53.48-1.24a1.74,1.74,0,0,0,.11-.75l-.13-1.55A.36.36,0,0,1,155.86,585.15Z" transform="translate(-130.08 -544.18)"/><path class="cls-3" d="M150.56,598.39l.18,1.51a2.4,2.4,0,0,0,.27.82l.64,1.18a.76.76,0,0,0,1.27.1l.43-.55,3.2.19,2.61-.14a1,1,0,0,0,.7-.35,6.08,6.08,0,0,1,.68-.73,2.33,2.33,0,0,1,.4.61.43.43,0,0,1-.15.58h0a.4.4,0,0,0,0,.66l.78.64,1.22,1a.65.65,0,0,0,.78,0l.77-.55h0a1.13,1.13,0,0,0,1.65-.08l1.58-1.87.4-.65a1.72,1.72,0,0,0-.09-2h0a.77.77,0,0,1,.27-1.15l.67-.34a4.23,4.23,0,0,0,1.65-1.49h0a3.37,3.37,0,0,0,.51-2.14l-.32-3a1.27,1.27,0,0,0-.38-.78l-1.35-1.38a.59.59,0,0,0-.23-.09l-.77-.15a1.17,1.17,0,0,0-.46.94l0,.17a4,4,0,0,1-.14,1.86l-.19.63-.2,1.45a.61.61,0,0,1-.84.49l-.87-.33a2.13,2.13,0,0,0-1.17-.11l-.16,0a.53.53,0,0,0-.44.48h0a1.39,1.39,0,0,1-1.38,1.28h-.83a1.83,1.83,0,0,1-1.43-.69l-.74-.91a1.12,1.12,0,0,0-.87-.42l-1.59,0a2,2,0,0,0-1.71.87l-.13.18a.91.91,0,0,1-.82.39h0a2.08,2.08,0,0,0-1.86.84l-1.16,1.56A1.83,1.83,0,0,0,150.56,598.39Z" transform="translate(-130.08 -544.18)"/><path class="cls-3" d="M150.76,625.14l.87.94a3,3,0,0,1,.71,2.69h0a1.27,1.27,0,0,0,.24,1.05l8.48,10.47a2.14,2.14,0,0,1,.29,2.2l-.2.44a.92.92,0,0,0,.56,1.24h0a1.37,1.37,0,0,0,1.28-.24l2.15-1.73a1.2,1.2,0,0,0,.2-1.67L159,632.32a22.17,22.17,0,0,1-1.71-2.58L156,627.32a2.86,2.86,0,0,0-1.4-1.14L150.85,625A.09.09,0,0,0,150.76,625.14Z" transform="translate(-130.08 -544.18)"/><path class="cls-3" d="M167.48,609l.26.42a1.29,1.29,0,0,0,.93.59l1.39.18a.52.52,0,0,1,.34.83l-.73,1a.78.78,0,0,0-.08.84l.12.23a.46.46,0,0,1-.41.68H169a.09.09,0,0,0-.06.16l2.94,2.9a1.43,1.43,0,0,1,.33.47l.45,1a1.29,1.29,0,0,1-.11,1.26l-.2.29a1,1,0,0,1-1,.43l-4.42-.69a.86.86,0,0,0-.84.37l-.15.23a.89.89,0,0,1-1,.37l-2.44-.57a2,2,0,0,0-.9,0l-3.34.86a.7.7,0,0,1-.88-.68v-.68a1.27,1.27,0,0,0-.15-.6l-.41-.76a.76.76,0,0,1,.12-.87l.6-.62A2.37,2.37,0,0,1,159,616l2.43-.31a1.94,1.94,0,0,0,.33-.07l.92-.29a2.19,2.19,0,0,0,1.54-2.07h0a1.74,1.74,0,0,1,.32-1l2.24-3.19A.42.42,0,0,1,167.48,609Z" transform="translate(-130.08 -544.18)"/><path class="cls-4" d="M151,549.62l.23,1a4.29,4.29,0,0,1,.13,1.07V553a.54.54,0,0,1-.4.52h0a2,2,0,0,0-1.39,1.3c-.25.76-.56,1.7-.6,1.78a7.83,7.83,0,0,1-1.46.67,2.34,2.34,0,0,1-.86.16h-.92a5.69,5.69,0,0,0-.83.07l-1.11.19-.73-.52a1.44,1.44,0,0,0-1.57-.1c-.07.05-.12.09-.12.11a6.93,6.93,0,0,1-.25.73,2.68,2.68,0,0,0,0,1.79,3.6,3.6,0,0,1,.27,1,3.18,3.18,0,0,0-.57.51,1.38,1.38,0,0,0-.19,1.71l.2.29a3.67,3.67,0,0,0,.84.92l.71.56a3.34,3.34,0,0,0,1.43.66l1.56.31s1.81,1.88,1.81,2a24.57,24.57,0,0,0,2.92.48.34.34,0,0,1,.29.25h0A2.64,2.64,0,0,0,152,570.1l2,.76a24.4,24.4,0,0,0,2.42.69,19.83,19.83,0,0,0,2-1.78,2.84,2.84,0,0,0,.91-2.31c0-.44-.06-.83-.06-.91a20.76,20.76,0,0,1,.93-2,3.68,3.68,0,0,1,.65-.91l.13-.13a5,5,0,0,0,1.44-3.52v-1c0-.09,0-.18,0-.27l-.21-2.88a2,2,0,0,0-1.57-1.76h0a4.09,4.09,0,0,1-2.51-1.64l-.33-.47a2.68,2.68,0,0,0-1.79-1.11l-1.21-.19a4.39,4.39,0,0,1-1.27-.41l-2.06-1.06A.39.39,0,0,0,151,549.62Z" transform="translate(-130.08 -544.18)"/></g></svg>
