<svg xmlns="http://www.w3.org/2000/svg" viewBox="0 0 147.75 258.24"><defs><style>.cls-1{fill:#5b5c5c;}.cls-1,.cls-2{stroke:#040000;stroke-miterlimit:10;}.cls-2{fill:none;}</style></defs><g id="圖層_2" data-name="圖層 2"><g id="圖層_1-2" data-name="圖層 1"><path class="cls-1" d="M90.52,56.09l3.12-2.73a2.46,2.46,0,0,1,3.49.27h0a1.76,1.76,0,0,0,2,.5h0a2.26,2.26,0,0,1,2.12.24l1.66,1.16,1.91-.12a2.81,2.81,0,0,1,2.65,1.46h0a2.64,2.64,0,0,0,3.25,1.2h0a1.33,1.33,0,0,1,1.18.14L114.55,60a5.48,5.48,0,0,0,3.62.91l2-.19a3.75,3.75,0,0,1,3.3,1.4l.58.72h0A2.19,2.19,0,0,1,126.25,65h0a4.39,4.39,0,0,0,1.06,2.85l1.23,1.43a3.33,3.33,0,0,1,.6,3.35h0l1.8,1.12a7.33,7.33,0,0,1,3.22,4.35h0a1.49,1.49,0,0,1-.18,1.22l-1.14,1.86-.13.18a5.29,5.29,0,0,1-3.5,2.29h0a3,3,0,0,0-2.28,1.9l-.13.36a4.6,4.6,0,0,0-.24,2.38l.27,1.67L125.9,92h0a2.37,2.37,0,0,1-3.23-.25l-1.9-2.09a1.69,1.69,0,0,0-2.34.07l-1.25,1.39a1.89,1.89,0,0,1-2.6.19h0a3.6,3.6,0,0,0-2.89-.77l-.66.31a3.49,3.49,0,0,0-1.76.84l-5.23,5-7.83.56L90,96.31l-.47-.21a2,2,0,0,0-2.67,1l-.22.47a1.48,1.48,0,0,1-2.28.54l-1.54-1.26c-1.21-1-1.14-2.53.13-3h0a2.64,2.64,0,0,0,.91-3.29l-2.24-4.8a1.35,1.35,0,0,0-2.09-.46h0a8.81,8.81,0,0,1-5.7,2.1h0a8,8,0,0,1,0-4.17l1-3.57,0-1.57a3.26,3.26,0,0,0-1.45-2.59h0a5.8,5.8,0,0,1,1.9-5.4l1.1-1,2.08-2,2.4-.86,5.43-2.65.15-.07c4.79.21,6.17-2.69,3.84-6.34h0A1.24,1.24,0,0,1,90.52,56.09Z"/><path class="cls-2" d="M53.85,88.1l.09.05a2,2,0,0,0,2.36-.35l1.21-1.24a2.53,2.53,0,0,1,1.81-.76h1.36l2.66-1.73,1.57-1.37a1.5,1.5,0,0,1,2,0l1.09,1a1.35,1.35,0,0,0,1.12.35l1-.13a1.39,1.39,0,0,1,1.27.48l1.87,2.23a1.33,1.33,0,0,0,1.44.41l4.81-1.6a3.1,3.1,0,0,1,2.25.51l2.35,5.56a5.13,5.13,0,0,1-1.93,2.87l-2.53.4c-.65-.05-1.18.62-1.25,1.42l-.52,5.51s-.73,4.86-1.14,4.86-4.17-1.1-4.17-1.1-2.66.28-2.49.46a1.4,1.4,0,0,1,0,.63,3.15,3.15,0,0,1-3.15,2.95H63.4l-2.64-3.26a2.86,2.86,0,0,0-2.13-1L55,105.24a3.56,3.56,0,0,0-3,1.5l-.4.57a2.32,2.32,0,0,1-2.08,1l-1.67-.13a1,1,0,0,1-.86-.6h0a3.54,3.54,0,0,1,.43-3.73l1.06-1.32a6,6,0,0,0,.48-.75l2.74-5.38,1-2.64A3.45,3.45,0,0,0,53,92.14l-.28-3.3A.77.77,0,0,1,53.85,88.1Z"/><path class="cls-1" d="M42.56,116.27l.39,3.21a5.07,5.07,0,0,0,.56,1.74l1.38,2.52a1.62,1.62,0,0,0,2.69.21l.92-1.18,6.81.41,5.55-.3a2.08,2.08,0,0,0,1.5-.75,11.53,11.53,0,0,1,1.44-1.55,5.32,5.32,0,0,1,.85,1.3.92.92,0,0,1-.32,1.23h0a.88.88,0,0,0-.1,1.42l1.65,1.36,2.6,2.16a1.37,1.37,0,0,0,1.67,0l1.63-1.17h0a2.4,2.4,0,0,0,3.51-.18l3.36-4,.86-1.38a3.68,3.68,0,0,0-.19-4.16h0a1.63,1.63,0,0,1,.57-2.45l1.42-.72a9,9,0,0,0,3.52-3.18h0a7.1,7.1,0,0,0,1.07-4.56l-.66-6.27a2.77,2.77,0,0,0-.83-1.65l-2.87-2.94a1.33,1.33,0,0,0-.48-.2L79.43,95a2.43,2.43,0,0,0-1,2l0,.37a8.53,8.53,0,0,1-.27,4l-.43,1.35-.42,3.08a1.32,1.32,0,0,1-1.78,1L73.74,106a4.6,4.6,0,0,0-2.49-.24l-.35.07a1.13,1.13,0,0,0-.93,1h0A3,3,0,0,1,67,109.6H65.28a3.93,3.93,0,0,1-3.06-1.46l-1.57-1.93a2.43,2.43,0,0,0-1.85-.9l-3.38-.06a4.36,4.36,0,0,0-3.64,1.84l-.27.39a2,2,0,0,1-1.75.82h0a4.47,4.47,0,0,0-4,1.79l-2.48,3.32A4,4,0,0,0,42.56,116.27Z"/><path class="cls-2" d="M83.39,112.6,86,115.39a3.22,3.22,0,0,0,2.36,1h4.49a4.22,4.22,0,0,1,2.66,1l2,1.62a2.25,2.25,0,0,0,3.08-.19l1.92-2a4.45,4.45,0,0,0,1.2-3v-1.1a2.78,2.78,0,0,1,1.73-2.58h0a1.76,1.76,0,0,0,1.09-1.63v-.58a2.48,2.48,0,0,1,.85-1.87l3.27-2.87a1.7,1.7,0,0,1,2.59.41l.73,1.24a2,2,0,0,0,2.5.88l2.4-.92a3.26,3.26,0,0,0,.89-.54l2.56-2.22a4.11,4.11,0,0,0,1.43-2.86l.46-6.55"/><path class="cls-2" d="M45.83,124.5,45.65,127a2.23,2.23,0,0,1-1.31,1.86h0a2.15,2.15,0,0,0-1.27,2h0a1.75,1.75,0,0,0,1.53,1.74h0A1.63,1.63,0,0,1,46,134l.58,4.07a5.61,5.61,0,0,1,0,1.16c-.06,1-.15,3,0,3s3.71-.73,5.83-1.17a3.32,3.32,0,0,1,2.83.71l1.24,1,.53.27a3.2,3.2,0,0,0,3.55-.37h0a1.29,1.29,0,0,1,1.87.23,20.43,20.43,0,0,0,2.08,2.64h0a2.1,2.1,0,0,1,2.28,1.83l.27,2A2.05,2.05,0,0,0,68.59,151h0a1.81,1.81,0,0,0,2.34-1.33l.51-2.36a4.84,4.84,0,0,1,.85-1.91l4.89-6.72a3.43,3.43,0,0,0,.63-2.54l-.42-2.82a4.52,4.52,0,0,0-1.46-2.7l-4.15-3.71"/><path class="cls-1" d="M43,173.18l1.85,2a6.35,6.35,0,0,1,1.51,5.74h0a2.58,2.58,0,0,0,.52,2.22l18,22.29a4.54,4.54,0,0,1,.62,4.67l-.41.93a1.94,1.94,0,0,0,1.18,2.64h0a2.9,2.9,0,0,0,2.73-.5l4.57-3.68a2.57,2.57,0,0,0,.42-3.55L60.56,188.47a44.6,44.6,0,0,1-3.62-5.5l-2.87-5.14a5.89,5.89,0,0,0-3-2.43l-7.93-2.51A.18.18,0,0,0,43,173.18Z"/><path class="cls-1" d="M78.56,138.94l.55.87a2.78,2.78,0,0,0,2,1.27l3,.39a1.1,1.1,0,0,1,.73,1.76l-1.56,2a1.69,1.69,0,0,0-.16,1.78l.26.5a1,1,0,0,1-.88,1.45h-.66a.2.2,0,0,0-.14.33l6.27,6.17a3.13,3.13,0,0,1,.7,1l1,2.19a2.74,2.74,0,0,1-.26,2.68l-.42.61a2.16,2.16,0,0,1-2.12.91l-9.4-1.46a1.81,1.81,0,0,0-1.8.8l-.31.47a1.91,1.91,0,0,1-2,.8l-5.19-1.21a4,4,0,0,0-1.92,0L59,164.12a1.49,1.49,0,0,1-1.86-1.45v-1.44a2.66,2.66,0,0,0-.32-1.27L56,158.32a1.58,1.58,0,0,1,.25-1.83l1.27-1.34a5.14,5.14,0,0,1,3-1.53L65.7,153a4.15,4.15,0,0,0,.7-.15l1.95-.61a4.65,4.65,0,0,0,3.28-4.42h0a3.72,3.72,0,0,1,.68-2.09l4.77-6.79A.89.89,0,0,1,78.56,138.94Z"/><path class="cls-2" d="M46.68,142.18l-5.1,3a3.94,3.94,0,0,0-1.86,2.63l-.57,2.89a6.54,6.54,0,0,0,.33,3.61l2.91,7.46a7.89,7.89,0,0,0,.33.72l2.13,4a3.57,3.57,0,0,1-.37,3.91l-1.37,1.69a.64.64,0,0,0,.3,1L51.64,176a3.14,3.14,0,0,0,2.18-.06l.83-.34a2.93,2.93,0,0,1,2.25,0l4.24,1.86a2.92,2.92,0,0,0,2.42,0l7.73-3.64a4.72,4.72,0,0,1,3.89-.07l5.42,2.34a8.38,8.38,0,0,1,2.33,1.48l.84.74a1.32,1.32,0,0,1-.11,2.06l-5,3.54a3.4,3.4,0,0,0-1.4,3.16l.31,2.49a1.7,1.7,0,0,0,2.33,1.38l2-.8a2.4,2.4,0,0,1,3.23,1.6l.32,1.17a3.48,3.48,0,0,1-.68,3.15l-2.92,3.52a12.08,12.08,0,0,1-2,1.95L74,205.94"/><path class="cls-2" d="M132.71,81.36l.72,1.67a3,3,0,0,0,2.79,1.84h7.1a2.46,2.46,0,0,1,2.46,2.46V96.6a9.66,9.66,0,0,0,.07,1.2l1.25,10.88a22.82,22.82,0,0,1-.73,8.93l-3.1,10.85a14.43,14.43,0,0,1-1.69,3.78l-1.64,2.6a18.36,18.36,0,0,0-2.5,6.41l-1.16,6.22a26.83,26.83,0,0,0-.32,7.32l.4,4.3a26,26,0,0,1-1,9.95l-.24.79a7,7,0,0,0,.79,5.73l2.82,4.43a14,14,0,0,1,1.95,4.85l.77,3.86v9.2a18.22,18.22,0,0,1-1.71,7.72l-3.83,8.19L133,219.66a24.46,24.46,0,0,0-2.29,7.46l-.63,4.56a15.77,15.77,0,0,0,.15,5.22l.47,2.33a27.5,27.5,0,0,1,.34,8.68l-.87,7.25a2.93,2.93,0,0,1-4,2.37l-13.07-5.23a14.52,14.52,0,0,1-3.47-2l-14-10.81c-.25-.19-.5-.4-.74-.61l-9.9-9a7.88,7.88,0,0,1-2.22-3.52l-.33-1.1a1.19,1.19,0,0,0-1.75-.68l-.85.51a2.46,2.46,0,0,1-3.29-.74L69,213.17"/><path class="cls-2" d="M118.28,104.92V110a14.32,14.32,0,0,1-.36,3.19l-.8,3.53-1.84,4.15a7.55,7.55,0,0,0-.54,4.35l0,.24a2.44,2.44,0,0,1-2.41,2.86h0a2.88,2.88,0,0,0-2.11.92l-4.92,5.28-5.81,6.84a4.77,4.77,0,0,1-1.59,1.22l-.64.3a3.12,3.12,0,0,1-3.87-1h0a1.29,1.29,0,0,0-1.86-.25l-.2.17a3.65,3.65,0,0,1-3.47.63l-.07,0a5,5,0,0,0-1.54-.25H84.94"/><path class="cls-2" d="M113.7,128l-.89,4.36-.17.7a2.58,2.58,0,0,0,1.07,2.78h0a4.23,4.23,0,0,1,1.7,2.28l1.56,5.14,1.56,4.72a6.77,6.77,0,0,1,.32,2.72l-.49,5.66a1,1,0,0,0,.87,1.07l5,.58a6.62,6.62,0,0,0,3.81-.71l4.19-2.2a6.14,6.14,0,0,1,1-.4l2.69-.79"/><path class="cls-2" d="M57.5,163.62l-3.12,3.62a2.72,2.72,0,0,0,0,3.6l1.85,2,1.37,1a5.06,5.06,0,0,1,1.67,2l.49,1"/><path class="cls-2" d="M88.74,156.8l2.36-.69a2.64,2.64,0,0,1,2.64.69l1.08,1.11a.64.64,0,0,0,1-.11l.51-.87a.82.82,0,0,1,1.27-.18l.33.31a1.51,1.51,0,0,0,2,0l.46-.41a2.23,2.23,0,0,1,2.54-.29l.39.2a2.44,2.44,0,0,1,1.17,1.46l.64,2.22,3,6,1.64.85a.66.66,0,0,1,0,1.18l-1.3.61A3.21,3.21,0,0,0,106.7,171a11.08,11.08,0,0,0-.44,1.88,34.57,34.57,0,0,1-.58,3.57,2.94,2.94,0,0,1-1,1.68l-1,.89a4.92,4.92,0,0,0-1.44,2.2l-.73,2.23a10,10,0,0,0-.22,5.33h0a4.05,4.05,0,0,0,1,1.88l2.31,2.41a5.37,5.37,0,0,0,.57.5l2.93,2.18a6.14,6.14,0,0,1,2.37,3.78h0a4.75,4.75,0,0,0,2.26,3.2h0a4.55,4.55,0,0,1,2.12,2.9l.79,3.44a9.51,9.51,0,0,1,.24,2.12v2a7.14,7.14,0,0,1-.75,3.17l-.19.38a7.31,7.31,0,0,1-2.63,2.91l-7.51,4.79a5.37,5.37,0,0,0-1,.84l-3.47,3.78a7,7,0,0,0-.83,1.11L97.9,233a11.58,11.58,0,0,0-1.67,5.64l0,1.31"/><path class="cls-2" d="M85.58,192.4s5.12-.62,5.28-.69,4.85.27,5.08.27,5.82-2.16,5.82-2.16"/><path class="cls-2" d="M105.63,161.18l5.78-2.42a17.75,17.75,0,0,1,3.69-1.09l3.5-.62"/><path class="cls-2" d="M114.22,218l1.27.14a10.19,10.19,0,0,1,5.68,2.57h0L133,219.66"/><path class="cls-2" d="M43.5,12.5l.5,2.16a10.29,10.29,0,0,1,.26,2.28V19.6a1.13,1.13,0,0,1-.85,1.1h0a4.22,4.22,0,0,0-2.95,2.76c-.53,1.64-1.2,3.62-1.28,3.8a17.68,17.68,0,0,1-3.11,1.42,5,5,0,0,1-1.83.35h-2a10.69,10.69,0,0,0-1.78.15l-2.35.39-1.55-1.11a3.09,3.09,0,0,0-3.34-.2c-.16.1-.27.18-.27.23A14.46,14.46,0,0,1,22.48,30a5.75,5.75,0,0,0,0,3.82A7.23,7.23,0,0,1,23,36a7.14,7.14,0,0,0-1.21,1.09,2.91,2.91,0,0,0-.39,3.63l.41.63a8.05,8.05,0,0,0,1.78,1.95l1.52,1.19a7.21,7.21,0,0,0,3.05,1.4l3.31.67s3.85,4,3.85,4.23,4.7.82,6.23,1a.73.73,0,0,1,.61.52h0a5.72,5.72,0,0,0,3.49,3.79L50,57.69a49.28,49.28,0,0,0,5.16,1.46,40.2,40.2,0,0,0,4.35-3.79,6,6,0,0,0,2-4.91c-.07-.93-.14-1.77-.14-1.93a43,43,0,0,1,2-4.3,7.59,7.59,0,0,1,1.38-1.95l.26-.26A10.7,10.7,0,0,0,68,34.52V32.4a5.43,5.43,0,0,0,0-.57l-.44-6.12A4.14,4.14,0,0,0,64.19,22h0a8.62,8.62,0,0,1-5.35-3.48l-.7-1a5.76,5.76,0,0,0-3.81-2.37l-2.56-.4a9.16,9.16,0,0,1-2.71-.88l-4.39-2.24A.82.82,0,0,0,43.5,12.5Z"/><path class="cls-2" d="M42.56,116.27,39,107.52,30.47,91.58l-10-24.72a3.37,3.37,0,0,0-3.74-2l-3.87.73a3,3,0,0,1-3.1-1.3L8.45,62.36a2.1,2.1,0,0,1,.81-3l3.9-2a4,4,0,0,0,1.94-5l-2.88-7.57a6.06,6.06,0,0,0-.6-1.16L10,41.15a1.29,1.29,0,0,1-.21-.9h0a6.79,6.79,0,0,0-1.65-5.37h0a2.31,2.31,0,0,1-.42-2.41h0a6,6,0,0,0,.06-4.29L.88,9.38a6.28,6.28,0,0,1,1.46-6.6l.14-.13A7.31,7.31,0,0,1,8.66.57l1.63.22a7.3,7.3,0,0,1,2.73,1l4.63,2.74a4.74,4.74,0,0,0,.72.34l3,1.09a3.24,3.24,0,0,0,3.12-.49l3-2.33a.78.78,0,0,1,1.24.39l1.52,5.13L35.5,11a8.14,8.14,0,0,1,2.18,1.43L39,13.55A4.87,4.87,0,0,0,42.9,14.8l1.1-.14"/><path class="cls-2" d="M7.59.5V3a3.55,3.55,0,0,0,1.73,3l1.66,1a3,3,0,0,1,1.47,2.59V12l.75,5.45a.68.68,0,0,0,1.12.41l1.33-1.19a1,1,0,0,1,1.58.26l.25.44A2.58,2.58,0,0,1,17.41,20h0a1.57,1.57,0,0,0,1.33,2.4h1.71a2,2,0,0,1,2,1.79L23,28.49"/><path class="cls-2" d="M62.2,46.4l3.89,1.47a7,7,0,0,0,5.71-.33l.66-.34a8.1,8.1,0,0,1,7.39,0l.38.2A6.15,6.15,0,0,0,86.38,47h0a2.22,2.22,0,0,1,3.38,1.41l1.5,7"/><path class="cls-2" d="M43.07,54.13l-1.4,2.64a6.26,6.26,0,0,0-.41,4.94l.1.3a4.53,4.53,0,0,0,1.27,2l1.12,1a3.28,3.28,0,0,1,.67,4L42.53,72.4l-.65,3.35a6,6,0,0,0,1.28,5h0a4.71,4.71,0,0,1,1.05,3.59h0a2,2,0,0,0,1.5,2.14L53,88.17"/><polyline class="cls-2" points="9.95 41.15 14.68 37.19 21.4 40.67"/><path class="cls-2" d="M20.42,66.86l7.66,1.53,5.24,2.29a3.53,3.53,0,0,0,2.22.19l1.12-.28a4.14,4.14,0,0,1,2.77.3l3.1,1.51"/></g></g></svg>